<svg width="163" height="28" fill="none" xmlns="http://www.w3.org/2000/svg"><path fill-rule="evenodd" clip-rule="evenodd" d="M115.629 3.569a3.773 3.773 0 00-1.971 1.2c-.674.766-.925 1.676-.925 3.355v1.293l-1.242.036-1.242.037v1.91l1.242.037 1.242.036v10.819h2.548V11.464h2.93V9.425h-2.93V8.307c0-.907.054-1.227.287-1.687.415-.824.915-1.048 2.165-.972l.987.06v-.993c0-.828-.037-1.007-.223-1.08-.38-.148-2.363-.193-2.868-.065zm-74.23 9.36v9.363h2.548v-2.994c0-1.646.043-2.993.096-2.993.053 0 1.443 1.347 3.088 2.993l2.992 2.994h3.312l-3.343-3.345-3.343-3.345 2.994-2.991c1.646-1.646 2.993-3.035 2.993-3.088 0-.054-.682-.097-1.515-.097h-1.516l-2.769 2.866c-1.523 1.576-2.819 2.866-2.88 2.866-.06 0-.11-2.608-.11-5.796V3.566H41.4v9.363zm49.17 0v9.363h2.547v-4.118c0-4.776.034-4.972 1.027-5.965.453-.453.785-.656 1.34-.817 1.48-.43 2.989-.003 3.523.997.282.529.29.638.326 5.221l.038 4.682h2.536v-4.7c0-4.332-.02-4.764-.253-5.52-.646-2.09-2.205-3.04-4.71-2.868-1.49.102-2.707.703-3.476 1.716l-.35.462V3.566h-2.548v9.363zm14.904-7.77v1.337h2.929V3.821h-2.929V5.16zm-75.73-1.01c-2.012.448-3.617 1.581-4.35 3.073-.325.663-.362.87-.362 2.013 0 1.527.29 2.318 1.137 3.098 1.098 1.013 1.988 1.388 5.177 2.185 3.502.875 4.454 1.508 4.447 2.959-.007 1.188-.812 2.166-2.144 2.604-1.095.36-3.581.325-4.855-.068-1.057-.326-2.132-.841-2.804-1.345l-.443-.331-.475.926-.475.927.399.346c1.095.951 3.114 1.674 5.243 1.875 4.746.45 8.102-1.624 8.13-5.022.01-1.238-.22-1.888-.947-2.684-1.036-1.134-2.015-1.576-5.37-2.424-2.893-.73-3.876-1.221-4.294-2.142-.322-.71-.3-1.412.07-2.209.55-1.18 1.924-1.816 3.928-1.816 1.726 0 3.203.46 4.657 1.448.375.254.704.463.731.463.027 0 .255-.408.506-.907l.456-.907-.423-.368c-.574-.5-2.28-1.314-3.289-1.57-1.205-.306-3.546-.368-4.65-.123zm40.795 1.69l-1.242.436v3.151h-2.42v2.039h2.42v3.479c0 1.966.06 3.806.139 4.23.29 1.571 1.209 2.692 2.518 3.073.713.207 2.966.208 3.298.001.105-.065.16-.433.16-1.079v-.98l-1.052.039c-1.243.045-1.788-.17-2.193-.866-.241-.416-.261-.699-.3-4.172l-.043-3.726h3.587V9.425h-3.56l-.035-2.011L71.78 5.4l-1.242.437zM58.482 9.372c-2.913.783-4.669 3.597-4.425 7.09.172 2.463 1.284 4.313 3.167 5.27 2.24 1.138 6.093.808 7.968-.683l.29-.23-.354-.856c-.195-.47-.395-.855-.445-.856-.05 0-.366.173-.7.386-1.028.653-2.148.924-3.579.865-1.064-.044-1.328-.102-1.904-.417-1.097-.6-1.706-1.645-1.886-3.233l-.09-.787h9.205v-.605c-.005-2.459-1.159-4.679-2.886-5.549-1.193-.6-2.991-.764-4.361-.395zm23.25-.008c-1.664.42-3.229 1.665-3.953 3.146-.918 1.877-.927 4.697-.022 6.675.39.851 1.519 2.059 2.346 2.509 2.091 1.138 5.509.912 7.554-.5l.463-.32-.397-.926-.397-.926-.761.492c-1.058.684-1.91.908-3.193.841-1.31-.069-2.2-.519-2.828-1.43-.55-.8-.691-1.306-.766-2.749-.134-2.585.81-4.232 2.75-4.796 1.245-.362 2.912-.027 4.22.847l.573.383.355-.788c.195-.434.338-.878.317-.988-.059-.31-1.182-.996-2.118-1.295-1.106-.353-3.103-.437-4.142-.175zm23.953.146c-.047.047-.085 2.941-.085 6.433v6.348h2.548V9.426h-1.189c-.654 0-1.227.038-1.274.085zm13.927-.022c0 .035 1.205 2.868 2.677 6.295l2.676 6.231-.432.95c-.731 1.603-1.707 2.417-3.539 2.95l-.707.205.267.952c.305 1.089.278 1.077 1.561.684 1.902-.582 3.369-1.7 4.255-3.245.238-.415 1.818-3.965 3.511-7.888l3.077-7.133-1.216-.037c-.669-.02-1.26.008-1.312.064-.053.055-.995 2.278-2.093 4.94-1.098 2.663-2.012 4.857-2.031 4.877-.019.019-.938-2.202-2.043-4.937l-2.008-4.971h-1.322c-.726 0-1.321.028-1.321.063zm-58.114 1.79c.983.41 1.938 1.79 1.938 2.801v.314h-3.375c-3.802 0-3.547.085-3.124-1.046.556-1.485 1.664-2.263 3.223-2.265.495 0 1.067.083 1.338.196zm73.145 9.484v1.529h3.057v-3.058h-3.057v1.529z" fill="#395690"/><path fill="#FF4777" d="M.001 0h8.152v15.286H.001z"/><path fill="#395690" d="M10.191 10.19h8.152v15.286h-8.152z"/><path fill="#FFD085" d="M0 17.324h8.152v8.152H0z"/><path fill="#09D9E7" d="M10.191 0h8.152v8.152h-8.152z"/><path fill-rule="evenodd" clip-rule="evenodd" d="M143.813 12.574l-4.032 9.053-.298.673 1.351-.036 1.351-.036.935-2.166.936-2.165 4.624-.033 4.625-.032.953 2.23.954 2.23h1.307c.719 0 1.308-.018 1.308-.04 0-.021-1.803-4.077-4.007-9.012l-4.006-8.973-1.134-.036-1.133-.037-3.734 8.38zm16.434.674v9.044h2.548V4.203h-2.548v9.044zm-9.747-1.975a1826.15 1826.15 0 011.812 4.236c.051.125-.715.159-3.579.159-2.005 0-3.644-.044-3.644-.099 0-.054.75-1.845 1.668-3.98.918-2.136 1.722-4.02 1.787-4.187.065-.167.139-.282.163-.255.025.028.832 1.884 1.793 4.126z" fill="#FF4777"/></svg>